<?xml version="1.0" encoding="utf-8"?>
<!-- Generator: Adobe Illustrator 17.1.0, SVG Export Plug-In . SVG Version: 6.00 Build 0)  -->
<!DOCTYPE svg PUBLIC "-//W3C//DTD SVG 1.1//EN" "http://www.w3.org/Graphics/SVG/1.1/DTD/svg11.dtd">
<svg version="1.1" id="Layer_1" xmlns="http://www.w3.org/2000/svg" xmlns:xlink="http://www.w3.org/1999/xlink" x="0px" y="0px"
	 viewBox="0 0 792 612" enable-background="new 0 0 792 612" xml:space="preserve">
<path fill="#2D1E0D" stroke="#693E17" stroke-miterlimit="10" d="M346.3,272.5c38-18.2,57.9-45.7,57.9-88.5
	c0-84.4-62.9-104.9-135.4-104.9H69v423.6h205.4c77,0,149.3-36.9,149.3-123C423.6,326.5,398.4,287.2,346.3,272.5L346.3,272.5z
	 M162.1,151.4h87.4c33.6,0,63.8,9.4,63.8,48.4c0,36-23.5,50.4-56.8,50.4h-94.4C162.1,250.2,162.1,151.4,162.1,151.4z M261.7,430.7
	h-99.6V314h101.5c41,0,66.9,17.1,66.9,60.5C330.5,417.3,299.6,430.7,261.7,430.7L261.7,430.7z M690.2,143H518.4v-41.7h171.8V143
	L690.2,143z M757.5,353.7c0-90.7-53.1-166.4-149.3-166.4c-93.5,0-156.9,70.3-156.9,162.3c0,95.5,60.1,161,156.9,161
	c73.3,0,120.7-33,143.6-103.2h-74.3c-8,26.2-41,40-66.6,40c-49.4,0-75.3-28.9-75.3-78.1h221.3C757.1,364.5,757.5,359.1,757.5,353.7z
	 M535.6,316.4c2.7-40.3,29.5-65.5,69.9-65.5c42.3,0,63.6,24.9,67.2,65.5H535.6z"/>
</svg>
