<?xml version="1.0" encoding="utf-8"?>
<!-- Generator: Adobe Illustrator 17.1.0, SVG Export Plug-In . SVG Version: 6.00 Build 0)  -->
<!DOCTYPE svg PUBLIC "-//W3C//DTD SVG 1.1//EN" "http://www.w3.org/Graphics/SVG/1.1/DTD/svg11.dtd">
<svg version="1.1" id="Layer_1" xmlns="http://www.w3.org/2000/svg" xmlns:xlink="http://www.w3.org/1999/xlink" x="0px" y="0px"
	 viewBox="0 0 792 612" enable-background="new 0 0 792 612" xml:space="preserve">
<path fill="#2D1C0D" d="M166.5,133.9c-10.5,0-19.1,8.6-19.1,19.1v26.4l206.2,169.3c24.7,20.3,60.2,20.3,85,0l206.1-169.3V153
	c0-10.5-8.6-19.1-19.1-19.1H166.5z M147.4,253.6V459c0,10.5,8.6,19.1,19.1,19.1h459c10.5,0,19.1-8.6,19.1-19.1V253.6L474.9,393
	c-45.9,37.7-112,37.7-157.8,0L147.4,253.6z M90,153c0-42.2,34.3-76.5,76.5-76.5h459c42.2,0,76.5,34.3,76.5,76.5v306
	c0,42.2-34.3,76.5-76.5,76.5h-459c-42.2,0-76.5-34.3-76.5-76.5V153z"/>
</svg>
