<?xml version="1.0" encoding="utf-8"?>
<!-- Generator: Adobe Illustrator 17.1.0, SVG Export Plug-In . SVG Version: 6.00 Build 0)  -->
<!DOCTYPE svg PUBLIC "-//W3C//DTD SVG 1.1//EN" "http://www.w3.org/Graphics/SVG/1.1/DTD/svg11.dtd">
<svg version="1.1" id="Layer_1" xmlns="http://www.w3.org/2000/svg" xmlns:xlink="http://www.w3.org/1999/xlink" x="0px" y="0px"
	 viewBox="0 0 792 612" enable-background="new 0 0 792 612" xml:space="preserve">
<path fill="#2D1E0D" d="M396.1,168.5c-76,0-137.3,61.3-137.3,137.3s61.3,137.3,137.3,137.3s137.3-61.3,137.3-137.3
	S472.1,168.5,396.1,168.5z M396.1,395.2c-49.1,0-89.3-40-89.3-89.3s40-89.3,89.3-89.3s89.3,40,89.3,89.3S445.2,395.2,396.1,395.2
	L396.1,395.2z M571.1,162.9c0,17.8-14.3,32-32,32c-17.8,0-32-14.3-32-32s14.3-32,32-32S571.1,145.2,571.1,162.9z M662.1,195.4
	c-2-42.9-11.8-80.9-43.3-112.2c-31.3-31.3-69.3-41.1-112.2-43.3c-44.2-2.5-176.8-2.5-221,0c-42.8,2-80.8,11.8-112.2,43.2
	s-41.1,69.3-43.3,112.2c-2.5,44.2-2.5,176.8,0,221c2,42.9,11.8,80.9,43.3,112.2c31.4,31.3,69.3,41.1,112.2,43.3
	c44.2,2.5,176.8,2.5,221,0c42.9-2,80.9-11.8,112.2-43.3c31.3-31.3,41.1-69.3,43.3-112.2C664.6,372.1,664.6,239.7,662.1,195.4
	L662.1,195.4z M604.9,463.8c-9.3,23.4-27.4,41.5-50.9,50.9c-35.3,14-118.9,10.8-157.9,10.8s-122.8,3.1-157.9-10.8
	c-23.4-9.3-41.5-27.4-50.9-50.9c-14-35.3-10.8-118.9-10.8-157.9s-3.1-122.8,10.8-157.9c9.3-23.4,27.4-41.5,50.9-50.9
	c35.3-14,118.9-10.8,157.9-10.8S518.9,83.2,554,97.1c23.4,9.3,41.5,27.4,50.9,50.9c14,35.3,10.8,118.9,10.8,157.9
	S618.9,428.6,604.9,463.8z"/>
</svg>
