<?xml version="1.0" encoding="utf-8"?>
<!-- Generator: Adobe Illustrator 17.1.0, SVG Export Plug-In . SVG Version: 6.00 Build 0)  -->
<!DOCTYPE svg PUBLIC "-//W3C//DTD SVG 1.1//EN" "http://www.w3.org/Graphics/SVG/1.1/DTD/svg11.dtd">
<svg version="1.1" id="Layer_1" xmlns="http://www.w3.org/2000/svg" xmlns:xlink="http://www.w3.org/1999/xlink" x="0px" y="0px"
	 viewBox="0 0 792 612" enable-background="new 0 0 792 612" xml:space="preserve">
<path fill="#2E210E" d="M248.1,535.5h-111V178h111V535.5z M192.5,129.2c-35.5,0-64.3-29.4-64.3-64.9C128.3,28.8,157,0,192.6,0
	c35.5,0,64.3,28.8,64.3,64.3C256.8,99.8,228,129.2,192.5,129.2z M663.6,535.5H552.8v-174c0-41.5-0.8-94.7-57.7-94.7
	c-57.7,0-66.6,45.1-66.6,91.7v177H317.7V178h106.5v48.8h1.6c14.8-28.1,51-57.7,105-57.7c112.4,0,133,74,133,170.1v196.4H663.6z"/>
</svg>
