<?xml version="1.0" encoding="utf-8"?>
<!-- Generator: Adobe Illustrator 17.1.0, SVG Export Plug-In . SVG Version: 6.00 Build 0)  -->
<!DOCTYPE svg PUBLIC "-//W3C//DTD SVG 1.1//EN" "http://www.w3.org/Graphics/SVG/1.1/DTD/svg11.dtd">
<svg version="1.1" id="Layer_1" xmlns="http://www.w3.org/2000/svg" xmlns:xlink="http://www.w3.org/1999/xlink" x="0px" y="0px"
	 viewBox="0 0 595.3 841.9" enable-background="new 0 0 595.3 841.9" xml:space="preserve">
<path fill="#2D1E0D" d="M215.8,213c-6.9-16.7-25.2-25.6-42.6-20.8l-79,21.6c-15.6,4.3-26.5,18.5-26.5,34.6
	c0,222.3,180.2,402.5,402.5,402.5c16.2,0,30.4-10.9,34.6-26.5l21.6-79.1c4.7-17.4-4.1-35.7-20.8-42.6l-86.3-35.9
	c-14.7-6.1-31.6-1.9-41.6,10.4l-36.3,44.3c-63.2-29.9-114.5-81.1-144.4-144.4l44.3-36.2c12.3-10.1,16.5-27,10.4-41.6L215.8,213
	L215.8,213z"/>
</svg>
