<?xml version="1.0" encoding="utf-8"?>
<!-- Generator: Adobe Illustrator 17.1.0, SVG Export Plug-In . SVG Version: 6.00 Build 0)  -->
<!DOCTYPE svg PUBLIC "-//W3C//DTD SVG 1.1//EN" "http://www.w3.org/Graphics/SVG/1.1/DTD/svg11.dtd">
<svg version="1.1" id="Layer_1" xmlns="http://www.w3.org/2000/svg" xmlns:xlink="http://www.w3.org/1999/xlink" x="0px" y="0px"
	 viewBox="0 0 792 612" enable-background="new 0 0 792 612" xml:space="preserve">
<path fill="#2D1E0D" d="M583.5,116.1c-50.1-50.2-116.8-77.8-187.7-77.8c-146.3,0-265.4,119.1-265.4,265.4
	c0,46.7,12.2,92.4,35.4,132.7l-37.7,137.5l140.7-36.9c38.7,21.2,82.4,32.3,126.8,32.3h0.1c146.2,0,267.9-119.1,267.9-265.4
	C663.8,232.8,633.6,166.3,583.5,116.1z M395.9,524.4c-39.7,0-78.5-10.6-112.4-30.7l-8-4.8l-83.4,21.9l22.2-81.4l-5.3-8.4
	c-22.1-35.1-33.7-75.7-33.7-117.4c0-121.6,99-220.5,220.7-220.5c58.9,0,114.3,22.9,155.9,64.7s67.2,97.1,67.1,156
	C618.9,425.4,517.4,524.4,395.9,524.4z M516.8,359.2c-6.6-3.3-39.2-19.4-45.3-21.5c-6.1-2.3-10.5-3.3-14.9,3.3
	c-4.4,6.7-17.1,21.5-21,26.1c-3.8,4.4-7.8,5-14.3,1.7c-39-19.5-64.5-34.8-90.2-78.9c-6.8-11.7,6.8-10.9,19.5-36.2
	c2.2-4.4,1.1-8.2-0.6-11.6s-14.9-36-20.4-49.2c-5.4-12.9-10.9-11.1-14.9-11.4c-3.8-0.2-8.2-0.2-12.7-0.2c-4.4,0-11.6,1.7-17.7,8.2
	c-6.1,6.7-23.2,22.7-23.2,55.3s23.8,64.2,27,68.6c3.3,4.4,46.7,71.4,113.3,100.2c42.1,18.2,58.6,19.7,79.6,16.6
	c12.8-1.9,39.2-16,44.7-31.6c5.5-15.5,5.5-28.8,3.8-31.6C527.8,364.1,523.4,362.4,516.8,359.2z"/>
</svg>
